<?xml version="1.0" encoding="UTF-8" standalone="no"?><svg xmlns="http://www.w3.org/2000/svg" xmlns:xlink="http://www.w3.org/1999/xlink" contentScriptType="application/ecmascript" contentStyleType="text/css" height="311px" preserveAspectRatio="none" style="width:549px;height:311px;" version="1.1" viewBox="0 0 549 311" width="549px" zoomAndPan="magnify"><defs/><g><!--cluster Dependencies--><path d="M25,216 L119,216 A4.5,4.5 0 0 1 122,219 L129,236.4844 L356,236.4844 A3,3 0 0 1 359,239.4844 L359,296 A3,3 0 0 1 356,299 L25,299 A3,3 0 0 1 22,296 L22,219 A3,3 0 0 1 25,216 " fill="#FFFFFF" style="stroke: #000000; stroke-width: 1.5;"/><line style="stroke: #000000; stroke-width: 1.5;" x1="22" x2="129" y1="236.4844" y2="236.4844"/><text fill="#000000" font-family="Tahoma, sans-serif" font-size="12" font-weight="bold" lengthAdjust="spacingAndGlyphs" textLength="94" x="26" y="230.0059">Dependencies</text><!--entity cheerio--><rect fill="#F8F8F8" height="34.4844" rx="3" ry="3" style="stroke: #383838; stroke-width: 1.0;" width="63" x="38.5" y="249"/><rect fill="#F8F8F8" height="5" style="stroke: #383838; stroke-width: 1.0;" width="10" x="33.5" y="254"/><rect fill="#F8F8F8" height="5" style="stroke: #383838; stroke-width: 1.0;" width="10" x="33.5" y="273.4844"/><text fill="#000000" font-family="Tahoma, sans-serif" font-size="12" lengthAdjust="spacingAndGlyphs" textLength="43" x="48.5" y="271.0059">cheerio</text><!--entity csv-writer--><rect fill="#F8F8F8" height="34.4844" rx="3" ry="3" style="stroke: #383838; stroke-width: 1.0;" width="76" x="267" y="249"/><rect fill="#F8F8F8" height="5" style="stroke: #383838; stroke-width: 1.0;" width="10" x="262" y="254"/><rect fill="#F8F8F8" height="5" style="stroke: #383838; stroke-width: 1.0;" width="10" x="262" y="273.4844"/><text fill="#000000" font-family="Tahoma, sans-serif" font-size="12" lengthAdjust="spacingAndGlyphs" textLength="56" x="277" y="271.0059">csv-writer</text><!--entity puppeteer/puppeteer--><rect fill="#F8F8F8" height="34.4844" rx="3" ry="3" style="stroke: #383838; stroke-width: 1.0;" width="139" x="114.5" y="249"/><rect fill="#F8F8F8" height="5" style="stroke: #383838; stroke-width: 1.0;" width="10" x="109.5" y="254"/><rect fill="#F8F8F8" height="5" style="stroke: #383838; stroke-width: 1.0;" width="10" x="109.5" y="273.4844"/><text fill="#000000" font-family="Tahoma, sans-serif" font-size="12" lengthAdjust="spacingAndGlyphs" textLength="119" x="124.5" y="271.0059">puppeteer/puppeteer</text><ellipse cx="116.1526" cy="24.9305" fill="#F8F8F8" rx="72.6526" ry="16.9305" style="stroke: #383838; stroke-width: 0.5;"/><text fill="#000000" font-family="Tahoma, sans-serif" font-size="12" lengthAdjust="spacingAndGlyphs" textLength="119" x="56.6526" y="28.6727">scrappers/puppeteer</text><ellipse cx="44.9558" cy="187.242" fill="#F8F8F8" rx="28.4558" ry="13.242" style="stroke: #383838; stroke-width: 0.5;"/><text fill="#000000" font-family="Tahoma, sans-serif" font-size="12" lengthAdjust="spacingAndGlyphs" textLength="36" x="26.9558" y="190.9842">config</text><ellipse cx="184.0771" cy="134.0154" fill="#F8F8F8" rx="58.0771" ry="14.0154" style="stroke: #383838; stroke-width: 0.5;"/><text fill="#000000" font-family="Tahoma, sans-serif" font-size="12" lengthAdjust="spacingAndGlyphs" textLength="83" x="142.5771" y="137.7576">createBrowser</text><ellipse cx="92.1777" cy="134.242" fill="#F8F8F8" rx="20.6777" ry="13.242" style="stroke: #383838; stroke-width: 0.5;"/><text fill="#000000" font-family="Tahoma, sans-serif" font-size="12" lengthAdjust="spacingAndGlyphs" textLength="25" x="79.6777" y="137.9842">data</text><ellipse cx="303.0477" cy="134.242" fill="#F8F8F8" rx="47.5477" ry="13.242" style="stroke: #383838; stroke-width: 0.5;"/><text fill="#000000" font-family="Tahoma, sans-serif" font-size="12" lengthAdjust="spacingAndGlyphs" textLength="63" x="271.5477" y="137.9842">export2csv</text><ellipse cx="415.9975" cy="134.242" fill="#F8F8F8" rx="52.4975" ry="13.242" style="stroke: #383838; stroke-width: 0.5;"/><text fill="#000000" font-family="Tahoma, sans-serif" font-size="12" lengthAdjust="spacingAndGlyphs" textLength="70" x="380.9975" y="137.9842">replaceDots</text><ellipse cx="509.9558" cy="134.242" fill="#F8F8F8" rx="28.4558" ry="13.242" style="stroke: #383838; stroke-width: 0.5;"/><text fill="#000000" font-family="Tahoma, sans-serif" font-size="12" lengthAdjust="spacingAndGlyphs" textLength="36" x="491.9558" y="137.9842">str2int</text><ellipse cx="183.9706" cy="81.242" fill="#F8F8F8" rx="19.9706" ry="13.242" style="stroke: #383838; stroke-width: 0.5;"/><text fill="#000000" font-family="Tahoma, sans-serif" font-size="12" lengthAdjust="spacingAndGlyphs" textLength="24" x="171.9706" y="84.9842">utils</text><!--link createBrowser to puppeteer/puppeteer--><path d="M184,148.423 C184,170.925 184,216.4455 184,243.4664 " fill="none" id="createBrowser-puppeteer/puppeteer" style="stroke: #000000; stroke-width: 0.5;"/><polygon fill="#000000" points="184,248.6116,188,239.6116,184,243.6116,180,239.6116,184,248.6116" style="stroke: #000000; stroke-width: 0.5;"/><!--link data to cheerio--><path d="M89.9697,146.997 C86.26,168.918 78.3387,215.7258 73.6645,243.3461 " fill="none" id="data-cheerio" style="stroke: #000000; stroke-width: 0.5;"/><polygon fill="#000000" points="72.7752,248.6013,78.2211,240.3951,73.6096,243.6714,70.3333,239.06,72.7752,248.6013" style="stroke: #000000; stroke-width: 0.5;"/><!--link data to config--><path d="M82.0325,145.816 C75.2707,153.153 66.2414,162.951 58.7915,171.035 " fill="none" id="data-config" style="stroke: #000000; stroke-width: 0.5;"/><polygon fill="#000000" points="55.278,174.847,64.3186,170.9396,58.6665,171.1703,58.4358,165.5181,55.278,174.847" style="stroke: #000000; stroke-width: 0.5;"/><!--link data to utils--><path d="M108.379,125.999 C124.899,117.777 150.014,104.001 166.799,94.051 " fill="none" id="data-utils" style="stroke: #000000; stroke-width: 0.5;"/><polygon fill="#000000" points="171.298,91.354,161.5219,92.5492,167.0091,93.9242,165.6342,99.4114,171.298,91.354" style="stroke: #000000; stroke-width: 0.5;"/><!--link utils to data--><path d="M167.978,89.091 C151.647,97.347 126.593,111.116 109.702,121.035 " fill="none" id="utils-data" style="stroke: #000000; stroke-width: 0.5;"/><polygon fill="#000000" points="105.1683,123.724,114.9499,122.5753,109.4693,121.1742,110.8703,115.6936,105.1683,123.724" style="stroke: #000000; stroke-width: 0.5;"/><!--link export2csv to csv-writer--><path d="M303.192,147.465 C303.533,169.628 304.248,216.1309 304.67,243.5323 " fill="none" id="export2csv-csv-writer" style="stroke: #000000; stroke-width: 0.5;"/><polygon fill="#000000" points="304.75,248.745,308.6109,239.6845,304.673,243.7456,300.6119,239.8077,304.75,248.745" style="stroke: #000000; stroke-width: 0.5;"/><!--link scrappers/puppeteer to config--><path d="M105.9265,42.14 C94.7965,60.479 76.8791,91.561 65,120 C58.2373,136.19 52.6633,155.472 49.1331,169.001 " fill="none" id="scrappers/puppeteer-config" style="stroke: #000000; stroke-width: 0.5;"/><polygon fill="#000000" points="47.8373,174.064,53.9443,166.3371,49.0773,169.2202,46.1942,164.3532,47.8373,174.064" style="stroke: #000000; stroke-width: 0.5;"/><!--link scrappers/puppeteer to utils--><path d="M135.668,41.619 C145.965,49.796 158.408,59.677 168.09,67.365 " fill="none" id="scrappers/puppeteer-utils" style="stroke: #000000; stroke-width: 0.5;"/><polygon fill="#000000" points="172.056,70.515,167.4942,61.7863,168.14,67.4062,162.5201,68.0519,172.056,70.515" style="stroke: #000000; stroke-width: 0.5;"/><!--link utils to createBrowser--><path d="M184,94.086 C184,100.283 184,107.957 184,114.849 " fill="none" id="utils-createBrowser" style="stroke: #000000; stroke-width: 0.5;"/><polygon fill="#000000" points="184,119.928,188,110.928,184,114.928,180,110.928,184,119.928" style="stroke: #000000; stroke-width: 0.5;"/><!--link utils to export2csv--><path d="M200.049,88.878 C219.002,97.001 250.888,110.666 274.162,120.641 " fill="none" id="utils-export2csv" style="stroke: #000000; stroke-width: 0.5;"/><polygon fill="#000000" points="278.99,122.71,272.2939,115.4876,274.3944,120.7401,269.142,122.8406,278.99,122.71" style="stroke: #000000; stroke-width: 0.5;"/><!--link utils to replaceDots--><path d="M202.435,86.045 C234.06,92.986 300.689,107.612 357,120 C362.333,121.173 367.937,122.407 373.482,123.628 " fill="none" id="utils-replaceDots" style="stroke: #000000; stroke-width: 0.5;"/><polygon fill="#000000" points="378.547,124.744,370.6183,118.9014,373.6641,123.6683,368.8972,126.714,378.547,124.744" style="stroke: #000000; stroke-width: 0.5;"/><!--link utils to str2int--><path d="M204.046,83.057 C251.672,85.904 375.099,95.262 475,120 C478.221,120.798 481.553,121.796 484.823,122.883 " fill="none" id="utils-str2int" style="stroke: #000000; stroke-width: 0.5;"/><polygon fill="#000000" points="489.886,124.648,482.704,117.9086,485.1646,123.0023,480.0709,125.4629,489.886,124.648" style="stroke: #000000; stroke-width: 0.5;"/><script type="text/plantuml"><![CDATA[
@startuml

scale max 1920 width
top to bottom direction

skinparam nodesep 13
skinparam ranksep 26
skinparam monochrome true
skinparam shadowing false
skinparam defaultFontName Tahoma
skinparam defaultFontSize 12
skinparam roundCorner 6
skinparam dpi 150
skinparam arrowColor black
skinparam arrowThickness 0.5
skinparam packageTitleAlignment left

skinparam usecase {
  borderThickness 0.5
}

skinparam rectangle {
  borderThickness 0.5
}

skinparam component {
  borderThickness 1
}


(scrappers/puppeteer)
(config)
(createBrowser)
(data)
(export2csv)
(replaceDots)
(str2int)
(utils)

package "Dependencies" {
  [cheerio]
  [csv-writer]
  [puppeteer/puppeteer]
}

(createBrowser) ---> [puppeteer/puppeteer]
(data) ---> [cheerio]
(data) --> (config)
(data) --> (utils)
(export2csv) ---> [csv-writer]
(scrappers/puppeteer) --> (config)
(scrappers/puppeteer) --> (utils)
(utils) --> (createBrowser)
(utils) --> (data)
(utils) --> (export2csv)
(utils) --> (replaceDots)
(utils) --> (str2int)

@enduml


' View and edit on https://arkit.pro
]]></script></g></svg>